<svg width="400" height="400" viewBox="0 0 400 400" fill="none" xmlns="http://www.w3.org/2000/svg">
<g clip-path="url(#clip0_3_3)">
<mask id="mask0_3_3" style="mask-type:luminance" maskUnits="userSpaceOnUse" x="0" y="0" width="400" height="400">
<path d="M0 0H400V400H0V0Z" fill="white"/>
</mask>
<g mask="url(#mask0_3_3)">
<mask id="mask1_3_3" style="mask-type:alpha" maskUnits="userSpaceOnUse" x="0" y="0" width="400" height="400">
<path fill-rule="evenodd" clip-rule="evenodd" d="M400 200C400 89.544 310.456 0 200 0C89.544 0 0 89.544 0 200C0 310.456 89.544 400 200 400C310.456 400 400 310.456 400 200ZM229.594 170.404C246.034 186.844 270.996 190.338 320.922 197.328L340 200L320.922 202.67C270.996 209.66 246.034 213.154 229.594 229.594C213.156 246.034 209.66 270.996 202.67 320.922L200 340L197.33 320.922C190.34 270.996 186.844 246.034 170.406 229.594C153.966 213.154 129.004 209.66 79.078 202.67L60 200L79.078 197.328C129.004 190.338 153.966 186.844 170.406 170.404C186.846 153.964 190.34 129.004 197.33 79.078L200 60L202.67 79.076C209.66 129.002 213.156 153.966 229.594 170.404Z" fill="white"/>
</mask>
<g mask="url(#mask1_3_3)">
<path d="M400 0H0V400H400V0Z" fill="white"/>
<path d="M400 0H0V400H400V0Z" fill="#FFF9C5" fill-opacity="0.44"/>
<g filter="url(#filter0_f_3_3)">
<path d="M316 44H30V260H316V44Z" fill="#00F0FF" fill-opacity="0.85"/>
<path d="M418 202H104V434H418V202Z" fill="#FF58E4"/>
<path d="M312 274C403.679 274 478 222.96 478 160C478 97.0395 403.679 46 312 46C220.321 46 146 97.0395 146 160C146 222.96 220.321 274 312 274Z" fill="#FFE500" fill-opacity="0.79"/>
</g>
</g>
</g>
<mask id="mask2_3_3" style="mask-type:alpha" maskUnits="userSpaceOnUse" x="0" y="0" width="400" height="400">
<path fill-rule="evenodd" clip-rule="evenodd" d="M400 200C400 89.544 310.456 0 200 0C89.544 0 0 89.544 0 200C0 310.456 89.544 400 200 400C310.456 400 400 310.456 400 200ZM229.594 170.404C246.034 186.844 270.996 190.338 320.922 197.328L340 200L320.922 202.67C270.996 209.66 246.034 213.154 229.594 229.594C213.156 246.034 209.66 270.996 202.67 320.922L200 340L197.33 320.922C190.34 270.996 186.844 246.034 170.406 229.594C153.966 213.154 129.004 209.66 79.078 202.67L60 200L79.078 197.328C129.004 190.338 153.966 186.844 170.406 170.404C186.846 153.964 190.34 129.004 197.33 79.078L200 60L202.67 79.076C209.66 129.002 213.156 153.966 229.594 170.404Z" fill="white"/>
</mask>
<g mask="url(#mask2_3_3)">
<g style="mix-blend-mode:overlay">
<path d="M400 0H0V400H400V0Z" fill="#808080"/>
</g>
</g>
</g>
<defs>
<filter id="filter0_f_3_3" x="-90" y="-76" width="688" height="630" filterUnits="userSpaceOnUse" color-interpolation-filters="sRGB">
<feFlood flood-opacity="0" result="BackgroundImageFix"/>
<feBlend mode="normal" in="SourceGraphic" in2="BackgroundImageFix" result="shape"/>
<feGaussianBlur stdDeviation="60" result="effect1_foregroundBlur_3_3"/>
</filter>
<clipPath id="clip0_3_3">
<rect width="400" height="400" fill="white"/>
</clipPath>
</defs>
</svg>
